{"asset":{"version":"2.0","generator":"THREE.GLTFExporter"},"scenes":[{"nodes":[0],"name":"AuxScene"}],"scene":0,"nodes":[{"mesh":0}],"bufferViews":[{"buffer":0,"byteOffset":0,"byteLength":27792,"target":34962,"byteStride":12},{"buffer":0,"byteOffset":27792,"byteLength":27792,"target":34962,"byteStride":12}],"buffers":[{"byteLength":55584,"uri":"data:application/octet-stream;base64,"}],"accessors":[{"bufferView":0,"componentType":5126,"count":2316,"max":[99.60000610351562,32.70000076293945,99.60000610351562],"min":[-99.5999984741211,0.10000000149011612,-99.5999984741211],"type":"VEC3"},{"bufferView":1,"componentType":5126,"count":2316,"max":[0.027767080813646317,1,0.11042910069227219],"min":[-0.8965957760810852,0.44014132022857666,-0.04890450835227966],"type":"VEC3"}],"materials":[{"pbrMetallicRoughness":{"baseColorFactor":[0.5019607843137255,0.5019607843137255,0.5019607843137255,1],"metallicFactor":0,"roughnessFactor":1}}],"meshes":[{"primitives":[{"mode":4,"attributes":{"POSITION":0,"NORMAL":1},"material":0}]}]}